# xmcd CD database file
#
# Track frame offsets:
#	150
#	30103
#	59247
#	83589
#	110751
#	138290
#	167117
#
# Disc length: 2665 seconds
#
# Revision: 0
# Processed by: cddbd v1.5.1PL0 Copyright (c) Steve Scherf et al.
# Submitted via: CDex 1.51
#
DISCID=560a6707
DTITLE=Buckner Funken Jazz - Late For School
DYEAR=2005
DGENRE=Jazz
TTITLE0=Future Blues
TTITLE1=In Walked Bucky
TTITLE2=Slug On A Stick
TTITLE3=Missouri Girl
TTITLE4=Don't Dat Purdy
TTITLE5=Looking For A Brand New Woman
TTITLE6=Antigua
EXTD=YEAR: 2005
EXTT0=
EXTT1=
EXTT2=
EXTT3=
EXTT4=
EXTT5=
EXTT6=
PLAYORDER=
